<svg xmlns="http://www.w3.org/2000/svg" width="13" height="13" viewBox="0 0 13 13">
    <path fill-rule="evenodd" d="M10.332 9.79a.542.542 0 0 0-.377.93l.383.383a.54.54 0 1 0 .765-.766l-.382-.383a.549.549 0 0 0-.39-.164zm-7.665 0a.545.545 0 0 0-.372.164l-.383.383a.542.542 0 1 0 .75.782l.016-.016.383-.382a.544.544 0 0 0-.394-.931zm9.258-3.824a.542.542 0 1 0-.016 1.083h.556a.542.542 0 1 0 .016-1.083h-.556zm-11.376 0a.542.542 0 0 0-.015 1.083h.557a.542.542 0 0 0 .015-1.083H.549zm5.959-3.25a3.796 3.796 0 0 0-3.792 3.792c0 1.508.888 2.81 2.167 3.42v1.455c0 .597.486 1.083 1.083 1.083H7.05c.596 0 1.083-.486 1.083-1.083V9.928a3.792 3.792 0 0 0 2.167-3.42 3.796 3.796 0 0 0-3.792-3.792zm4.202-.968a.54.54 0 0 0-.372.164l-.383.383a.54.54 0 1 0 .75.78l.016-.014.382-.383a.54.54 0 0 0-.393-.93zm-8.421-.001a.542.542 0 0 0-.377.93l.383.384a.542.542 0 0 0 .782-.75l-.016-.016-.383-.383a.538.538 0 0 0-.39-.165zM6.499 0a.542.542 0 0 0-.533.549v.542a.542.542 0 0 0 1.084.015V.549a.542.542 0 0 0-.535-.55h-.016z"/>
</svg>
